HIERARCHY
ROOT Hips
{
	OFFSET -14.64140 90.27770 -84.91600
	CHANNELS 6 Xposition Yposition Zposition Zrotation Xrotation Yrotation
	JOINT Spine
	{
		OFFSET 0.00000 13.20850 -1.60436
		CHANNELS 3 Zrotation Xrotation Yrotation
		JOINT Spine1
		{
			OFFSET 0.00000 8.61716 0.00000
			CHANNELS 3 Zrotation Xrotation Yrotation
			JOINT Spine2
			{
				OFFSET 0.00000 8.61717 0.00000
				CHANNELS 3 Zrotation Xrotation Yrotation
				JOINT Spine3
				{
					OFFSET 0.00000 8.61717 0.00000
					CHANNELS 3 Zrotation Xrotation Yrotation
					JOINT Neck
					{
						OFFSET 0.00000 11.07920 1.10792
						CHANNELS 3 Zrotation Xrotation Yrotation
						JOINT Neck1
						{
							OFFSET 0.00000 7.08032 0.00000
							CHANNELS 3 Zrotation Xrotation Yrotation
							JOINT Head
							{
								OFFSET 0.00000 7.08031 0.00000
								CHANNELS 3 Zrotation Xrotation Yrotation
								End site
								{
									OFFSET 0.00000 0.00000 0.00000
								}
							}
						}
					}
					JOINT RightShoulder
					{
						OFFSET -0.01000 7.91373 5.19711
						CHANNELS 3 Zrotation Xrotation Yrotation
						JOINT RightArm
						{
							OFFSET -18.41580 0.00000 0.00000
							CHANNELS 3 Zrotation Xrotation Yrotation
							JOINT RightForeArm
							{
								OFFSET -29.11090 0.00000 0.00000
								CHANNELS 3 Zrotation Xrotation Yrotation
								JOINT RightHand
								{
									OFFSET -24.65040 0.00000 0.00000
									CHANNELS 3 Zrotation Xrotation Yrotation
									JOINT RightHandThumb1
									{
										OFFSET -5.35114 -0.85590 3.97906
										CHANNELS 3 Zrotation Xrotation Yrotation
										JOINT RightHandThumb2
										{
											OFFSET -4.52789 0.00000 0.00000
											CHANNELS 3 Zrotation Xrotation Yrotation
											JOINT RightHandThumb3
											{
												OFFSET -2.46976 0.00000 0.00000
												CHANNELS 3 Zrotation Xrotation Yrotation
												End site
												{
													OFFSET 0.00000 0.00000 0.00000
												}
											}
										}
									}
									JOINT RightHandIndex1
									{
										OFFSET -14.26970 0.00000 2.88139
										CHANNELS 3 Zrotation Xrotation Yrotation
										JOINT RightHandIndex2
										{
											OFFSET -5.48836 0.00000 0.00000
											CHANNELS 3 Zrotation Xrotation Yrotation
											JOINT RightHandIndex3
											{
												OFFSET -3.01859 0.00000 0.00000
												CHANNELS 3 Zrotation Xrotation Yrotation
												End site
												{
													OFFSET 0.00000 0.00000 0.00000
												}
											}
										}
									}
									JOINT RightHandMiddle1
									{
										OFFSET -14.26970 0.00000 -0.09147
										CHANNELS 3 Zrotation Xrotation Yrotation
										JOINT RightHandMiddle2
										{
											OFFSET -6.17441 0.00000 0.00000
											CHANNELS 3 Zrotation Xrotation Yrotation
											JOINT RightHandMiddle3
											{
												OFFSET -3.56743 0.00000 0.00000
												CHANNELS 3 Zrotation Xrotation Yrotation
												End site
												{
													OFFSET 0.00000 0.00000 0.00000
												}
											}
										}
									}
									JOINT RightHandRing1
									{
										OFFSET -12.69180 0.00000 -3.06433
										CHANNELS 3 Zrotation Xrotation Yrotation
										JOINT RightHandRing2
										{
											OFFSET -5.62556 0.00000 0.00000
											CHANNELS 3 Zrotation Xrotation Yrotation
											JOINT RightHandRing3
											{
												OFFSET -3.56744 0.00000 0.00000
												CHANNELS 3 Zrotation Xrotation Yrotation
												End site
												{
													OFFSET 0.00000 0.00000 0.00000
												}
											}
										}
									}
									JOINT RightHandPinky1
									{
										OFFSET -11.11390 0.00000 -6.03719
										CHANNELS 3 Zrotation Xrotation Yrotation
										JOINT RightHandPinky2
										{
											OFFSET -4.52789 0.00000 0.00000
											CHANNELS 3 Zrotation Xrotation Yrotation
											JOINT RightHandPinky3
											{
												OFFSET -2.46976 0.00000 0.00000
												CHANNELS 3 Zrotation Xrotation Yrotation
												End site
												{
													OFFSET 0.00000 0.00000 0.00000
												}
											}
										}
									}
								}
							}
						}
					}
					JOINT LeftShoulder
					{
						OFFSET 0.01000 7.91373 5.19711
						CHANNELS 3 Zrotation Xrotation Yrotation
						JOINT LeftArm
						{
							OFFSET 18.41580 0.00000 0.00000
							CHANNELS 3 Zrotation Xrotation Yrotation
							JOINT LeftForeArm
							{
								OFFSET 29.11090 0.00000 0.00000
								CHANNELS 3 Zrotation Xrotation Yrotation
								JOINT LeftHand
								{
									OFFSET 24.65040 0.00000 0.00000
									CHANNELS 3 Zrotation Xrotation Yrotation
									JOINT LeftHandThumb1
									{
										OFFSET 5.35114 -0.85590 3.97906
										CHANNELS 3 Zrotation Xrotation Yrotation
										JOINT LeftHandThumb2
										{
											OFFSET 4.52789 0.00000 0.00000
											CHANNELS 3 Zrotation Xrotation Yrotation
											JOINT LeftHandThumb3
											{
												OFFSET 2.46977 0.00000 0.00000
												CHANNELS 3 Zrotation Xrotation Yrotation
												End site
												{
													OFFSET 0.00000 0.00000 0.00000
												}
											}
										}
									}
									JOINT LeftHandIndex1
									{
										OFFSET 14.26970 0.00000 2.88139
										CHANNELS 3 Zrotation Xrotation Yrotation
										JOINT LeftHandIndex2
										{
											OFFSET 5.48836 0.00000 0.00000
											CHANNELS 3 Zrotation Xrotation Yrotation
											JOINT LeftHandIndex3
											{
												OFFSET 3.01859 0.00000 0.00000
												CHANNELS 3 Zrotation Xrotation Yrotation
												End site
												{
													OFFSET 0.00000 0.00000 0.00000
												}
											}
										}
									}
									JOINT LeftHandMiddle1
									{
										OFFSET 14.26970 0.00000 -0.09147
										CHANNELS 3 Zrotation Xrotation Yrotation
										JOINT LeftHandMiddle2
										{
											OFFSET 6.17440 0.00000 0.00000
											CHANNELS 3 Zrotation Xrotation Yrotation
											JOINT LeftHandMiddle3
											{
												OFFSET 3.56744 0.00000 0.00000
												CHANNELS 3 Zrotation Xrotation Yrotation
												End site
												{
													OFFSET 0.00000 0.00000 0.00000
												}
											}
										}
									}
									JOINT LeftHandRing1
									{
										OFFSET 12.69180 0.00000 -3.06433
										CHANNELS 3 Zrotation Xrotation Yrotation
										JOINT LeftHandRing2
										{
											OFFSET 5.62556 0.00000 0.00000
											CHANNELS 3 Zrotation Xrotation Yrotation
											JOINT LeftHandRing3
											{
												OFFSET 3.56744 0.00000 0.00000
												CHANNELS 3 Zrotation Xrotation Yrotation
												End site
												{
													OFFSET 0.00000 0.00000 0.00000
												}
											}
										}
									}
									JOINT LeftHandPinky1
									{
										OFFSET 11.11390 0.00000 -6.03719
										CHANNELS 3 Zrotation Xrotation Yrotation
										JOINT LeftHandPinky2
										{
											OFFSET 4.52789 0.00000 0.00000
											CHANNELS 3 Zrotation Xrotation Yrotation
											JOINT LeftHandPinky3
											{
												OFFSET 2.46976 0.00000 0.00000
												CHANNELS 3 Zrotation Xrotation Yrotation
												End site
												{
													OFFSET 0.00000 0.00000 0.00000
												}
											}
										}
									}
								}
							}
						}
					}
					JOINT pCube4
					{
						OFFSET 0.00000 10.91090 1.10792
						CHANNELS 3 Zrotation Xrotation Yrotation
						End site
						{
							OFFSET 0.00000 0.00000 0.00000
						}
					}
				}
			}
		}
	}
	JOINT RightUpLeg
	{
		OFFSET -9.98441 0.00000 0.00000
		CHANNELS 3 Zrotation Xrotation Yrotation
		JOINT RightLeg
		{
			OFFSET 0.00000 -42.11790 0.00000
			CHANNELS 3 Zrotation Xrotation Yrotation
			JOINT RightFoot
			{
				OFFSET 0.00000 -45.00020 -0.00001
				CHANNELS 3 Zrotation Xrotation Yrotation
				JOINT RightForeFoot
				{
					OFFSET 0.00000 -3.74820 0.00000
					CHANNELS 3 Zrotation Xrotation Yrotation
					JOINT RightToeBase
					{
						OFFSET 0.00000 0.06325 14.43120
						CHANNELS 3 Zrotation Xrotation Yrotation
						End site
						{
							OFFSET 0.00000 0.00000 0.00000
						}
					}
				}
			}
		}
	}
	JOINT LeftUpLeg
	{
		OFFSET 9.98441 0.00000 0.00000
		CHANNELS 3 Zrotation Xrotation Yrotation
		JOINT LeftLeg
		{
			OFFSET 0.00000 -42.11800 0.00000
			CHANNELS 3 Zrotation Xrotation Yrotation
			JOINT LeftFoot
			{
				OFFSET 0.00000 -45.00070 0.00000
				CHANNELS 3 Zrotation Xrotation Yrotation
				JOINT LeftForeFoot
				{
					OFFSET 0.00000 -3.74824 0.00000
					CHANNELS 3 Zrotation Xrotation Yrotation
					JOINT LeftToeBase
					{
						OFFSET 0.00000 0.06325 14.43110
						CHANNELS 3 Zrotation Xrotation Yrotation
						End site
						{
							OFFSET 0.00000 0.00000 0.00000
						}
					}
				}
			}
		}
	}
}
MOTION
Frames: 4
Frame Time: 0.050000
-0.0041130980502426745 -0.031185535917404167 0.015553889856576648 0.04978945792804499 0.013043974593068487 0.034229931768030714 -0.07772043410010858 3.080531011393734 -1.3245200551137701 -0.4585652967843496 3.3453899326437155 0.32919366837133873 -0.5044277814118338 -1.216470746724159 -1.6098803346418686 -0.8237964380645815 -0.6776477106028649 -0.7142899910579692 -1.5019348070706806 10.906171217098676 2.3414371852605615 0.11708463633631408 -0.5317472327339232 5.699669129644906 -0.5451091981301848 -15.512093374125794 0.5228650998912756 -1.8312916035926754 1.4159546022268859 -12.873884953550842 70.58599964767735 5.837570797577741 14.316110672964127 -0.9296149729104077 8.693977348308088 83.36472683847177 21.235020692324458 -0.4169588107586572 -2.7137047363303575 4.525454838808571 -0.12295681282216961 -1.574094994731827 0.03539900608569478 -0.02840479536008877 -56.2016593408223 -0.032706554160740496 0.04820337200339397 -56.213315019479815 -38.77957580834303 -0.030570066673104825 0.03671919285783375 0.024720170436074728 0.022534912011786336 -0.020979538709507934 0.03723057480998794 0.0413874439581945 -0.04264767979585925 -36.67144621519291 0.015702754464383233 0.028842556679194255 -0.0011678222196587617 0.02818785673667687 0.011364202137686326 0.01259621045376264 0.013077124251496987 -0.04125857809881595 -19.775734614465225 -0.0022215426624032945 -0.030129734776836 -0.013624685390307355 -0.034000759220460065 0.04008488361363153 0.016217178783074028 0.0076971155389048505 0.0064895007851690665 24.03465780755485 0.03631829481480654 -0.01974311882207965 28.887704191335096 -0.04405799120095668 0.025205824110009756 28.81683045841419 0.01921215461642636 0.0008405720645187082 7.864550620311626 2.058942918092995 11.219390432755802 -63.41856123170394 13.419949447496995 -36.64984385644301 11.937713378613365 -7.920795887605201 -70.26057424577907 -19.423935389999528 -0.06330480101208244 2.226739419645738 -0.4781766541832182 0.11490820211154447 -8.083945160030499 0.0010462893172427348 -0.030341800624523057 44.591344832009824 -0.021121207251525078 0.004327379645624398 44.5225308106413 12.49110008833921 0.006077932075622931 -0.0049401896043426005 -0.01652980156704844 0.043337887324742946 0.03150761274159029 -0.010629558145454273 0.022422065418133214 -0.00673963887582317 11.109201722977136 -0.01976972162749667 0.029783162426571606 0.032222332456060834 -0.014320978271361254 0.044221365887969225 0.012954621588915392 0.04974095168350466 0.04078918031748055 4.737514256702581 -0.032458024307553936 -0.011392705640056282 0.015211635994773855 -0.045718742889125856 -0.017895426732285367 0.011888266329069417 0.0026192515205481527 0.015956223913443188 -5.593289055080422 0.019874146715894686 -0.006853534386445841 -6.673237602863112 0.003919153539249848 -0.012597545462555228 -6.753358272581535 0.033342820366404784 -0.003987301087513884 -0.012218843628312749 -0.04920897476063569 -0.01828859206921984 8.093916363795346 3.4922285106553965 -19.268898141597614 -0.03294593723592994 10.414312528391818 0.021346974367883156 -5.661293000855587 -15.641347127736827 3.233695875175201 0.023628537878255133 0.012644968206780032 0.0022144652716247462 0.02261651801739236 4.654871654114114 0.027738046411659178 12.445459768055454 -8.208406507510606 6.90762902177487 -0.021549901586848115 46.401954157713966 -0.038931638766914904 -4.331495286967321 -14.782924467614604 -3.8808963024817666 0.038856224923107266 0.0008867968843823349 0.0020166845231957115 -0.03472214668065746 -10.705559883020191 0.03120876178781123 
0.010107447477370942 -0.022372699940614083 0.009832111982719563 -0.029840692834128435 -0.03137166564713214 0.010554993928811525 -0.15642105159326306 3.2562697686413484 -1.3263601007481882 -0.5189853096613833 3.394585620889318 0.2594893167334167 -0.47429849803914603 -1.2012512164010904 -1.7500563555882216 -0.8630963291811093 -0.6207922198856357 -0.7566616446584727 -1.543929854941656 10.660833409216407 2.4609790268936167 0.03707889782532092 -0.622767424406727 5.95029543637336 -0.6233323926517269 -15.640107325883493 0.53840328441419 -1.6805378872085126 1.3427019842465184 -12.796437659149666 70.68871476309442 5.011345335994061 13.884429755069636 -1.42250255988152 8.563179312289664 82.52143210350741 20.665617175537765 -0.3579996897915319 -2.4454220009256007 4.5001086469004585 -0.08707588784785852 -1.6276615493029842 -0.016994065469964986 -0.020102359857009755 -56.24493900261806 0.03880303498042039 -0.013935852534102487 -56.23956401831254 -38.75208156443687 0.014134339418209256 -0.02091459546713573 -0.035397212015312894 -0.010478180963350325 0.02217116293867846 0.04186082225663949 0.03970090166424249 0.007767377021084432 -36.67661291152271 0.048489771006528445 -0.028956650301336363 0.008664379973342925 -0.004005691753359075 -0.037127463449100416 -0.0031705704191739323 0.028677543166491157 -0.009405579017589495 -19.729421435881505 0.007192085873069923 0.027728966056261028 -0.04847639553309759 -0.027612260714815 -0.005312097728624439 -0.023054612914732073 0.022831451556801396 0.009199478659832025 24.093021616675124 -0.0027677434712040858 -0.04709772853221463 28.85816539584018 0.04250011452286786 0.002367536551289009 28.884146560130485 -0.015188941187819976 0.015016833830395296 7.612704586298802 2.0108529828097117 11.083323327605115 -63.35746352358567 14.13615364809877 -35.96382669374533 12.766190290014766 -8.612896713949656 -69.79797005180113 -18.44993332074968 -0.3037379323653998 2.627748235012927 -0.4534598943982098 0.04580722420764924 -8.115895361651381 -9.363273082629737e-05 0.02007249494083002 44.52124653956424 0.04032862676606588 -0.01861487536511697 44.614911989076745 12.461270009658433 0.021737548866941656 -0.031645705996328787 -0.033158689164209325 -0.005172285133564759 0.020436049142032123 -0.04790540959753054 0.045310250110266743 -0.014325267498426424 11.13011386059896 0.039809623393570054 -0.015253261086434409 0.0050481492850168366 0.025095085869213673 -0.019646389690878813 -0.019350462416705475 -0.027474754643607043 -0.023455214590031484 4.768340907840048 0.0018213128593048845 -0.026363161026451594 0.046308188706496174 0.01959141127533712 -0.00839590229476907 -0.03201370448786885 0.043186615088681685 -0.008707847188935327 -5.5784401585642485 -0.030640981321843935 0.0385937931372524 -6.745329313732757 -0.018610893872263577 0.015503693520916913 -6.740055107483328 0.042540102232341934 0.03734881981938492 -0.0429469484167669 0.0006898811424349952 -0.014290863874424506 8.012700135312288 3.4741299345352483 -19.22740022268952 -0.030976150203271498 10.404764372504141 -0.0073938842539748514 -5.61740002045294 -15.706163687692358 3.1616484313605855 -0.04974704589214861 0.041706641685520435 0.0010718808572850124 -0.03419083289274612 4.700046724679329 0.026415353955519767 12.488683516210594 -8.229671368368779 6.876120552707281 -0.03169762613126557 46.36110268527832 -0.045576787389581076 -4.315536677669419 -14.716456429961088 -3.87893367706644 -0.04091217348061789 0.025707689175437233 0.016004406409372958 0.034381265134717766 -10.7476501771142 -0.01911709720439901 
0.03008274398906166 -0.028893843450654058 0.013781683764495754 -0.01866298723046558 0.03612661651218448 -0.015084659998024476 -0.23894780153999587 3.3407050406313337 -1.2713498865286685 -0.54363734647018 3.3831700029901826 0.3074243435053664 -0.47478876038355367 -1.1990174275113825 -1.8082195603575855 -0.8687657108682157 -0.5849234877562701 -0.7734717191107403 -1.505042966859633 10.570275020678453 2.6346927853442508 0.09220790255285466 -0.7608834446730306 6.330636512955937 -0.6469992805632557 -15.728231879120163 0.5869838475538525 -1.5832296969772908 1.34439503693222 -12.74534865153893 70.7870913391912 3.974664061015923 13.533341817181823 -2.27058742655713 8.684683606471271 81.2086084836993 20.9678041052023 -0.3654339194479415 -2.1591713645597483 4.531586349840012 -0.10656221901619935 -1.5868578592563518 -0.01822433698406356 -0.0004785237039184015 -56.2792526604385 -0.04073877401005651 0.014829768338715353 -56.25938973233466 -38.7509077197222 -0.02216137038031483 0.004819667988437636 0.04750020988389729 -0.028976088847487456 -0.009669960279870576 0.018022730498426374 -0.03836951797970399 0.01417279113145131 -36.656831799709515 -0.03432443246633914 0.0037668438539862075 -0.023644767429381593 0.028711879997600075 -0.002061568496240496 -0.021458088937558312 -0.01866216935874226 -0.0430509851274049 -19.76543422015207 -0.02743555023332843 -0.01843081695272377 0.009642052345089622 0.019359875009131743 -0.01474147459733904 0.003060181425214657 -0.028631455294649683 0.027080519838142632 24.040566683082062 0.04508999406334782 0.0364247036159428 28.881536420375713 -0.03225869556168892 0.0004322546205101055 28.842706338712716 -0.01946686883084159 0.046705797202079104 7.451345192515304 2.013368166940225 10.961064212330614 -63.9817376077625 14.422034026750477 -35.29640457890695 11.642612729258857 -8.094595840656647 -68.14723144322011 -18.601833346025828 -0.2270239761864269 2.852837511754216 -0.4556714046514546 0.051387219331502296 -8.078738024741137 0.030636087288337454 0.012920798538749313 44.615113874164564 0.015138845460055997 -0.019080054583081412 44.588900674225286 12.449691255664828 -0.044728006165174174 -0.0017947845740796608 0.031681774995114376 0.025545819182276518 0.04293605884146574 -0.019588360341065193 -0.039284818476104655 -0.040323282891146235 11.095144862246658 0.029610411426368586 0.03585763288657604 -0.035440434360898825 0.004567990821255233 -0.029536018247374243 0.018149812724303657 -0.00825730488621471 0.04861260911571672 4.805740486575336 -0.018231197596865308 -0.04421841866321028 -0.045898303676558366 -0.024002609703388585 -0.03493877760157855 0.03434446886008212 -0.0017771239741391119 -0.020849079155660023 -5.58651474269309 0.022790445171445187 -0.028185480205347925 -6.720036858973478 -0.015990029134720744 0.006078281978156939 -6.753270947740799 0.023350697469106087 0.039755762806242205 0.025485365180110017 -0.022112970609128292 -0.009550997084273196 8.030609453006774 3.468743546234779 -19.20145246734698 -0.04988365350925975 10.438796206172778 -0.002056184078733158 -5.634411730513398 -15.696159965599875 3.1568697785347077 -0.016288401596951513 -0.03293534614383391 0.00182376565210188 0.01678012684247066 4.724805586427848 0.00911803805680154 12.417503321230443 -8.21204640930306 6.888806013533684 0.02410483954480037 46.33558783350927 0.008168301129601265 -4.3706777949669275 -14.766406789114285 -3.869223169503355 0.039430745328033916 -0.008501796033462078 -0.04316542219080106 0.04653029171675845 -10.727091408896927 0.007408723663254261 
0.04002346558753296 -0.04594908717881901 0.0216213500414993 -0.012255701516184915 -0.03213813607311596 -0.03100899808143875 -0.3068202298037206 3.39166005406053 -1.2886186764711518 -0.535598281657685 3.333268042979389 0.3204822909759103 -0.49168525421447107 -1.2171383266054219 -1.8460893619750784 -0.9407431844571442 -0.6788442686172558 -0.7946494572197889 -1.5298597615758247 10.513630393231718 2.6272795573419567 0.06145085182871756 -0.8432335342037277 6.612952138657007 -0.6953181929479617 -15.840986202732854 0.6001401092882563 -1.782712290738323 1.4372079545438545 -12.683400216886211 70.5349036013408 1.3876339357488146 13.722711635875665 -3.7389038251825437 8.579285876703437 79.41900298395963 21.19235351960702 -0.39633267480783696 -1.687482658112273 4.567556705226637 -0.14348887139400654 -1.5878607281476744 -0.03539375141639803 0.003028616566518759 -56.226942842301796 0.0015847833193719768 -0.007226426657603902 -56.20746124436673 -38.74398229997718 -0.039604060251690595 0.04204196633664765 -0.028883033706626947 0.048159311611773295 -0.004398423612522294 -0.03038212131391727 -0.01062122343516488 -0.04747013048506496 -36.72551081291445 0.04057086444603669 -0.006509910479891682 -0.004165154635571928 -0.02107135558145034 -0.03301795160257106 -0.03287586373153388 0.03949298872871943 -0.029953873979897516 -19.80179578174111 0.012987104173109802 -0.006620671372803709 0.03761347089640542 0.0009717666928664174 0.002596658842946693 0.048803919634090316 0.01414168556847396 -0.016582660218541136 24.07684188075844 -0.024540483547196654 -0.0028933352408707113 28.88680851311871 -0.016031773810106138 -0.018482070660299613 28.906099813868657 0.021405486467357217 0.04372013819705027 7.527342654069298 1.9834154831218114 10.778800253405661 -64.46739585591352 13.665975542852639 -35.101618104745796 10.277325888870433 -7.169875102981745 -66.55522733575364 -18.77250731228242 0.010003801246095971 2.879369249797346 -0.48805406508355664 0.07101443527745956 -8.095611955100432 0.032772423956064764 0.047298540634837266 44.58371830144775 -0.038610206924938356 0.006030956492266002 44.579171450604484 12.475234282258647 0.044948067002026484 0.025971679740156545 0.021741918908360906 0.004885547667888331 0.019476297741745505 -0.02059136113861711 -0.040926416332620584 0.019892438453002537 11.102192475030892 0.0482028666420298 -0.020678954109116566 -0.016809703391714472 -0.023235469001101825 -0.047231261558729386 -0.0004916498510307204 0.022735319851552558 -0.03487078855628256 4.784985470196231 -0.027073298131841096 -0.0006765536668059159 -0.039639312015228516 0.02116656118742293 -0.009755335846471886 -0.03234723026998191 -0.026765333369125514 0.007524483151401247 -5.646555292247656 0.02785891982813835 0.00033412793940453304 -6.726127309188261 -0.029617842031883484 -0.02281697911787858 -6.718797338217807 -0.007827042859198824 0.02977988411560946 -0.013033878402296507 -0.036260068757157475 0.008000883541414544 8.061550080008258 3.5345580880089025 -19.25165673875884 -0.03155291131112749 10.383476562562729 0.02442336668026698 -5.609402305341179 -15.684431756043418 3.169875199680958 -0.019448100859292824 -0.015037238092494267 -0.025988003384232503 -0.029589941668984897 4.686406329328499 -0.004573070223909642 12.474109004668113 -8.26671915774021 6.921046022587423 -0.012675101159461695 46.38443321920951 -0.03293957422773076 -4.289329385676347 -14.788045114043635 -3.8493848457890665 0.0022861698645317676 0.03167295083638814 -0.041605707376453284 -0.016653705161258595 -10.768489947812515 -0.01942621545807598 
